<svg width="24" height="17" viewBox="0 0 24 17" fill="none" xmlns="http://www.w3.org/2000/svg">
<path fill-rule="evenodd" clip-rule="evenodd" d="M17.7568 0C17.7568 0.990732 17.9252 1.96911 18.2499 2.8782C18.5746 3.78728 19.0476 4.60465 19.6357 5.28669C20.2236 5.96848 20.9134 6.50001 21.6612 6.85924C22.3985 7.2134 23.1816 7.39521 23.9685 7.39995C23.979 7.3999 23.9896 7.39988 24.0001 7.39988V7.40005V9.39988V9.40005C23.9896 9.40005 23.979 9.40002 23.9685 9.39998C23.1816 9.40472 22.3985 9.58652 21.6612 9.94069C20.9134 10.2999 20.2236 10.8314 19.6357 11.5132C19.0476 12.1953 18.5746 13.0126 18.2499 13.9217C17.9252 14.8308 17.7568 15.8092 17.7568 16.7999H15.7568C15.7568 15.5844 15.9631 14.3782 16.3665 13.249C16.7698 12.1198 17.3639 11.0852 18.121 10.2072C18.3695 9.91904 18.634 9.64947 18.9131 9.40015L0 9.40015V7.40015L18.9135 7.40015C18.6343 7.15073 18.3696 6.88103 18.121 6.59276C17.3639 5.71477 16.7698 4.68011 16.3665 3.55092C15.9631 2.42172 15.7568 1.21549 15.7568 0H17.7568Z" fill="#F2F2F2"/>
</svg>
