<svg width="52" height="6" viewBox="0 0 52 6" fill="none" xmlns="http://www.w3.org/2000/svg">
<path fill-rule="evenodd" clip-rule="evenodd" d="M3.91717 2.22237C3.65628 2.47212 3.33237 2.89161 2.91506 3.54076C2.78578 3.74186 2.67888 3.91613 2.57435 4.08652C2.51362 4.18552 2.45369 4.28321 2.39065 4.38409C2.23319 4.63604 2.0607 4.90035 1.86404 5.1306C1.66051 5.36889 1.40715 5.60011 1.07307 5.76433C0.734513 5.93076 0.470584 5.9934 0.0957031 5.99237L0.101188 3.99238C0.226308 3.99272 0.176144 3.97665 0.190764 3.96947C0.209859 3.96008 0.257089 3.93255 0.343247 3.83168C0.436266 3.72277 0.54254 3.5675 0.694609 3.32416C0.74108 3.2498 0.793656 3.16418 0.850912 3.07093C0.963658 2.88732 1.09455 2.67415 1.2327 2.45924C1.67254 1.77505 2.09863 1.19455 2.53417 0.777626C2.96704 0.363248 3.52501 0 4.21674 0C4.90847 0 5.46644 0.363248 5.89931 0.777626C6.33485 1.19455 6.76094 1.77505 7.20078 2.45924C7.61808 3.10839 7.94199 3.52788 8.20289 3.77763C8.37379 3.94123 8.46956 3.98616 8.50245 3.99753C8.53535 3.98616 8.63112 3.94122 8.80202 3.77763C9.06292 3.52788 9.38683 3.10839 9.80413 2.45924C10.244 1.77505 10.6701 1.19455 11.1056 0.777626C11.5385 0.363248 12.0964 0 12.7882 0C13.4799 0 14.0379 0.363248 14.4707 0.777626C14.9063 1.19455 15.3324 1.77505 15.7722 2.45924C16.1895 3.10839 16.5134 3.52788 16.7743 3.77763C16.9452 3.94123 17.041 3.98616 17.0739 3.99753C17.1068 3.98616 17.2025 3.94123 17.3735 3.77763C17.6343 3.52788 17.9583 3.10839 18.3756 2.45924C18.8154 1.77505 19.2415 1.19455 19.677 0.777627C20.1099 0.363248 20.6679 0 21.3596 0C22.0513 0 22.6093 0.363248 23.0422 0.777627C23.4777 1.19455 23.9038 1.77505 24.3436 2.45924C24.7609 3.10839 25.0848 3.52788 25.3457 3.77763C25.5166 3.94123 25.6124 3.98616 25.6453 3.99753C25.6782 3.98616 25.774 3.94123 25.9449 3.77763C26.2058 3.52788 26.5297 3.10839 26.947 2.45924C27.3868 1.77505 27.8129 1.19455 28.2485 0.777627C28.6813 0.363248 29.2393 0 29.931 0C30.6228 0 31.1807 0.363248 31.6136 0.777627C32.0491 1.19455 32.4752 1.77505 32.9151 2.45924C33.3324 3.10839 33.6563 3.52788 33.9172 3.77763C34.0881 3.9412 34.1839 3.98615 34.2168 3.99753C34.2497 3.98615 34.3454 3.9412 34.5163 3.77763C34.7772 3.52788 35.1011 3.10839 35.5184 2.45924C35.9583 1.77505 36.3843 1.19455 36.8199 0.777626C37.2528 0.363247 37.8107 0 38.5025 0C39.1942 0 39.7522 0.363247 40.185 0.777626C40.6206 1.19455 41.0467 1.77505 41.4865 2.45924C41.9038 3.10839 42.2277 3.52788 42.4886 3.77763C42.6595 3.9412 42.7553 3.98615 42.7882 3.99753C42.8211 3.98615 42.9169 3.9412 43.0877 3.77763C43.3486 3.52788 43.6725 3.10839 44.0898 2.45924C44.5297 1.77505 44.9558 1.19455 45.3913 0.777626C45.8242 0.363247 46.3822 0 47.0739 0C47.7656 0 48.3236 0.363247 48.7565 0.777626C49.192 1.19455 49.6181 1.77505 50.0579 2.45924C50.5089 3.16076 50.771 3.56 51.008 3.80584C51.1882 3.99281 51.1917 4 51.2871 4V6C50.5258 6 50.0307 5.67374 49.5682 5.19399C49.1774 4.78872 48.8099 4.21668 48.4207 3.61092L48.3756 3.54076C47.9583 2.89161 47.6343 2.47212 47.3735 2.22237C47.2026 2.05879 47.1068 2.01385 47.0739 2.00247C47.041 2.01385 46.9452 2.05879 46.7743 2.22237C46.5134 2.47212 46.1895 2.89161 45.7722 3.54076C45.3324 4.22495 44.9063 4.80545 44.4707 5.22237C44.0379 5.63675 43.4799 6 42.7882 6C42.0964 6 41.5385 5.63675 41.1056 5.22237C40.6701 4.80545 40.244 4.22495 39.8041 3.54076C39.3868 2.89161 39.0629 2.47212 38.802 2.22237C38.6311 2.0588 38.5353 2.01385 38.5024 2.00247C38.4695 2.01385 38.3738 2.0588 38.2029 2.22237C37.942 2.47212 37.6181 2.89161 37.2008 3.54076C36.7609 4.22495 36.3349 4.80545 35.8993 5.22237C35.4664 5.63675 34.9085 6 34.2167 6C33.525 6 32.967 5.63675 32.5342 5.22237C32.0986 4.80545 31.6725 4.22495 31.2327 3.54076C30.8154 2.89161 30.4915 2.47212 30.2306 2.22237C30.0597 2.05878 29.9639 2.01384 29.931 2.00247C29.8981 2.01384 29.8024 2.05878 29.6315 2.22237C29.3706 2.47212 29.0467 2.89161 28.6294 3.54076C28.1895 4.22495 27.7634 4.80545 27.3279 5.22237C26.895 5.63675 26.337 6 25.6453 6C24.9536 6 24.3956 5.63675 23.9627 5.22237C23.5272 4.80545 23.1011 4.22495 22.6613 3.54076C22.244 2.89161 21.9201 2.47212 21.6592 2.22237C21.4883 2.05878 21.3925 2.01384 21.3596 2.00247C21.3267 2.01384 21.2309 2.05878 21.06 2.22237C20.7991 2.47212 20.4752 2.89161 20.0579 3.54076C19.6181 4.22495 19.192 4.80545 18.7565 5.22237C18.3236 5.63675 17.7656 6 17.0739 6C16.3822 6 15.8242 5.63675 15.3913 5.22237C14.9558 4.80545 14.5297 4.22495 14.0898 3.54076C13.6725 2.89161 13.3486 2.47212 13.0877 2.22237C12.9168 2.05877 12.8211 2.01384 12.7882 2.00247C12.7553 2.01384 12.6595 2.05877 12.4886 2.22237C12.2277 2.47212 11.9038 2.89161 11.4865 3.54076C11.0467 4.22495 10.6206 4.80545 10.185 5.22237C9.75215 5.63675 9.19418 6 8.50245 6C7.81073 6 7.25276 5.63675 6.81988 5.22237C6.38435 4.80545 5.95825 4.22495 5.51842 3.54076C5.10111 2.89161 4.7772 2.47212 4.51631 2.22237C4.34541 2.05877 4.24963 2.01384 4.21674 2.00247C4.18385 2.01384 4.08807 2.05877 3.91717 2.22237Z" fill="white"/>
</svg>
